<svg id="Capa_1" enable-background="new 0 0 512 512" height="512" viewBox="0 0 512 512" width="512" xmlns="http://www.w3.org/2000/svg" xmlns:xlink="http://www.w3.org/1999/xlink"><linearGradient id="SVGID_1_" gradientUnits="userSpaceOnUse" x1="256" x2="256" y1="512" y2="0"><stop offset="0" stop-color="#5558ff"/><stop offset="1" stop-color="#00c0ff"/></linearGradient><g><g><path d="m15 271h92c8.284 0 15-6.716 15-15s-6.716-15-15-15h-92c-8.284 0-15 6.716-15 15s6.716 15 15 15zm0-60h62c8.284 0 15-6.716 15-15s-6.716-15-15-15h-62c-8.284 0-15 6.716-15 15s6.716 15 15 15zm62 90h-62c-8.284 0-15 6.716-15 15s6.716 15 15 15h62c8.284 0 15-6.716 15-15s-6.716-15-15-15zm427.885-57.76-390-241c-5.455-3.371-12.448-2.901-17.402 1.166-4.956 4.068-6.778 10.835-4.535 16.842l86.961 232.862c-.379 1.941-.379 3.839 0 5.78l-86.961 232.862c-2.243 6.006-.42 12.774 4.535 16.842 4.901 4.023 11.891 4.572 17.402 1.166l390-241c4.423-2.733 7.115-7.561 7.115-12.76s-2.692-10.027-7.115-12.76zm-368.509 217.974 71.034-190.214h169.59c8.284 0 15-6.716 15-15s-6.716-15-15-15h-169.59l-71.034-190.214 332.09 205.214z" fill="url(#SVGID_1_)"/></g></g></svg>